<?xml version="1.0" encoding="utf-8"?>
<svg width="606px" height="384px" viewBox="0 0 606 384" version="1.1" xmlns:xlink="http://www.w3.org/1999/xlink" xmlns="http://www.w3.org/2000/svg">
  <defs>
    <linearGradient x1="-0.18783109" y1="0.96270514" x2="1.030657" y2="-0.07135691" id="gradient_1">
      <stop offset="0" stop-color="#F84100" />
      <stop offset="1" stop-color="#F9D213" />
    </linearGradient>
  </defs>
  <path d="M541.3 8.00024C529.426 8.00024 519.8 17.6262 519.8 29.5002C519.8 41.3743 529.426 51.0002 541.3 51.0002C553.174 51.0002 562.8 41.3743 562.8 29.5002C562.8 17.6262 553.174 8.00024 541.3 8.00024L541.3 8.00024ZM490.8 0C478.926 0 469.3 9.62598 469.3 21.5C469.3 33.374 478.926 43 490.8 43C502.674 43 512.3 33.374 512.3 21.5C512.3 9.62598 502.674 0 490.8 0L490.8 0ZM584.3 18.0002C572.426 18.0002 562.8 27.6262 562.8 39.5002C562.8 51.3743 572.426 61.0002 584.3 61.0002C596.174 61.0002 605.8 51.3743 605.8 39.5002C605.8 27.6262 596.174 18.0002 584.3 18.0002L584.3 18.0002ZM425.9 9.0002C418.997 9.0002 413.4 14.5966 413.4 21.5002C413.4 28.4038 418.997 34.0002 425.9 34.0002C432.803 34.0002 438.4 28.4038 438.4 21.5002C438.4 14.5966 432.803 9.0002 425.9 9.0002L425.9 9.0002ZM453.7 5.0002C446.796 5.0002 441.2 10.5966 441.2 17.5002C441.2 24.4038 446.796 30.0002 453.7 30.0002C460.604 30.0002 466.2 24.4038 466.2 17.5002C466.2 10.5966 460.604 5.0002 453.7 5.0002L453.7 5.0002ZM512.9 38.0002C508.758 38.0002 505.4 41.3581 505.4 45.5002C505.4 49.6423 508.758 53.0002 512.9 53.0002C517.042 53.0002 520.4 49.6423 520.4 45.5002C520.4 41.3581 517.042 38.0002 512.9 38.0002L512.9 38.0002ZM487.8 110C483.658 110 480.3 113.358 480.3 117.5C480.3 121.642 483.658 125 487.8 125C491.942 125 495.3 121.642 495.3 117.5C495.3 113.358 491.942 110 487.8 110L487.8 110ZM369.7 23.0002C362.796 23.0002 357.2 28.5966 357.2 35.5002C357.2 42.4038 362.796 48.0002 369.7 48.0002C376.603 48.0002 382.2 42.4038 382.2 35.5002C382.2 28.5966 376.603 23.0002 369.7 23.0002L369.7 23.0002ZM334 176C329.858 176 326.5 179.358 326.5 183.5C326.5 187.642 329.858 191 334 191C338.142 191 341.5 187.642 341.5 183.5C341.5 179.358 338.142 176 334 176L334 176ZM432 48.0002C427.858 48.0002 424.5 51.3581 424.5 55.5002C424.5 59.6423 427.858 63.0002 432 63.0002C436.142 63.0002 439.5 59.6423 439.5 55.5002C439.5 51.3581 436.142 48.0002 432 48.0002L432 48.0002ZM343.328 33C336.424 33 330.828 38.5965 330.828 45.5C330.828 52.4036 336.424 58 343.328 58C350.232 58 355.828 52.4036 355.828 45.5C355.828 38.5965 350.232 33 343.328 33L343.328 33ZM561.7 58.0002C549.826 58.0002 540.2 67.6262 540.2 79.5002C540.2 91.3743 549.826 101 561.7 101C573.574 101 583.2 91.3743 583.2 79.5002C583.2 67.6262 573.574 58.0002 561.7 58.0002L561.7 58.0002ZM400.3 51.0002C393.397 51.0002 387.8 56.5966 387.8 63.5002C387.8 70.4038 393.397 76.0002 400.3 76.0002C407.204 76.0002 412.8 70.4038 412.8 63.5002C412.8 56.5966 407.204 51.0002 400.3 51.0002L400.3 51.0002ZM372.499 55C365.596 55 359.999 60.5965 359.999 67.5C359.999 74.4036 365.596 80 372.499 80C379.402 80 384.999 74.4036 384.999 67.5C384.999 60.5965 379.402 55 372.499 55L372.499 55ZM314.9 45.0002C307.997 45.0002 302.4 50.5966 302.4 57.5002C302.4 64.4038 307.997 70.0002 314.9 70.0002C321.803 70.0002 327.4 64.4038 327.4 57.5002C327.4 50.5966 321.803 45.0002 314.9 45.0002L314.9 45.0002ZM531.1 54.0002C526.958 54.0002 523.6 57.3581 523.6 61.5002C523.6 65.6423 526.958 69.0002 531.1 69.0002C535.242 69.0002 538.6 65.6423 538.6 61.5002C538.6 57.3581 535.242 54.0002 531.1 54.0002L531.1 54.0002ZM504.3 58.0002C497.949 58.0002 492.8 63.149 492.8 69.5002C492.8 75.8514 497.949 81.0002 504.3 81.0002C510.651 81.0002 515.8 75.8514 515.8 69.5002C515.8 63.149 510.651 58.0002 504.3 58.0002L504.3 58.0002ZM480.4 65.0002C475.982 65.0002 472.4 68.582 472.4 73.0002C472.4 77.4184 475.982 81.0002 480.4 81.0002C484.818 81.0002 488.4 77.4184 488.4 73.0002C488.4 68.582 484.818 65.0002 480.4 65.0002L480.4 65.0002ZM497.9 88.0002C493.482 88.0002 489.9 91.582 489.9 96.0002C489.9 100.418 493.482 104 497.9 104C502.319 104 505.9 100.418 505.9 96.0002C505.9 91.582 502.319 88.0002 497.9 88.0002L497.9 88.0002ZM345.5 62C338.597 62 333 67.5965 333 74.5C333 81.4036 338.597 87 345.5 87C352.403 87 358 81.4036 358 74.5C358 67.5965 352.403 62 345.5 62L345.5 62ZM526.6 81.0002C522.458 81.0002 519.1 84.3581 519.1 88.5002C519.1 92.6423 522.458 96.0002 526.6 96.0002C530.742 96.0002 534.1 92.6423 534.1 88.5002C534.1 84.3581 530.742 81.0002 526.6 81.0002L526.6 81.0002ZM285.9 58C278.997 58 273.4 63.5966 273.4 70.5C273.4 77.4034 278.997 83 285.9 83C292.804 83 298.4 77.4034 298.4 70.5C298.4 63.5966 292.804 58 285.9 58L285.9 58ZM315.503 75C308.6 75 303.003 80.5965 303.003 87.5C303.003 94.4036 308.6 100 315.503 100C322.406 100 328.003 94.4036 328.003 87.5C328.003 80.5965 322.406 75 315.503 75L315.503 75ZM382.5 79C378.358 79 375 82.3579 375 86.5C375 90.6421 378.358 94 382.5 94C386.642 94 390 90.6421 390 86.5C390 82.3579 386.642 79 382.5 79L382.5 79ZM415.399 35.0002C411.257 35.0002 407.899 38.3581 407.899 42.5002C407.899 46.6423 411.257 50.0002 415.399 50.0002C419.542 50.0002 422.899 46.6423 422.899 42.5002C422.899 38.3581 419.542 35.0002 415.399 35.0002L415.399 35.0002ZM262.3 75.0002C255.396 75.0002 249.8 80.5966 249.8 87.5002C249.8 94.4037 255.396 100 262.3 100C265.643 100 268.679 98.6879 270.922 96.5505C270.21 97.6972 269.8 99.05 269.8 100.499C269.8 104.641 273.158 107.999 277.3 107.999C281.442 107.999 284.8 104.641 284.8 100.499C284.8 96.3566 281.442 92.9987 277.3 92.9987C275.467 92.9987 273.788 93.6559 272.485 94.7477C273.942 92.7036 274.8 90.2018 274.8 87.5002C274.8 80.5966 269.203 75.0002 262.3 75.0002L262.3 75.0002ZM252.702 116C248.008 116 244.202 119.806 244.202 124.5C244.202 129.194 248.008 133 252.702 133C257.396 133 261.202 129.194 261.202 124.5C261.202 119.806 257.396 116 252.702 116L252.702 116ZM526.4 100C514.526 100 504.9 109.626 504.9 121.5C504.9 133.374 514.526 143 526.4 143C538.274 143 547.9 133.374 547.9 121.5C547.9 109.626 538.274 100 526.4 100L526.4 100ZM339.5 87C332.597 87 327 92.5965 327 99.5C327 106.404 332.597 112 339.5 112C346.403 112 352 106.404 352 99.5C352 92.5965 346.403 87 339.5 87L339.5 87ZM448.5 172C441.597 172 436 177.596 436 184.5C436 191.404 441.597 197 448.5 197C455.404 197 461 191.404 461 184.5C461 177.596 455.404 172 448.5 172L448.5 172ZM362.5 89C358.358 89 355 92.3579 355 96.5C355 100.642 358.358 104 362.5 104C366.642 104 370 100.642 370 96.5C370 92.3579 366.642 89 362.5 89L362.5 89ZM427.7 70.0002C419.692 70.0002 413.2 76.4922 413.2 84.5002C413.2 92.5084 419.692 99.0002 427.7 99.0002C435.708 99.0002 442.2 92.5084 442.2 84.5002C442.2 76.4922 435.708 70.0002 427.7 70.0002L427.7 70.0002ZM458.7 84.0002C450.692 84.0002 444.2 90.4922 444.2 98.5002C444.2 106.508 450.692 113 458.7 113C466.708 113 473.2 106.508 473.2 98.5002C473.2 90.4922 466.708 84.0002 458.7 84.0002L458.7 84.0002ZM462.3 118C454.292 118 447.8 124.492 447.8 132.5C447.8 140.508 454.292 147 462.3 147C470.308 147 476.8 140.508 476.8 132.5C476.8 124.492 470.308 118 462.3 118L462.3 118ZM426.5 107C418.492 107 412 113.492 412 121.5C412 129.508 418.492 136 426.5 136C434.508 136 441 129.508 441 121.5C441 113.492 434.508 107 426.5 107L426.5 107ZM385.8 100C381.382 100 377.8 103.582 377.8 108C377.8 112.418 381.382 116 385.8 116C390.218 116 393.8 112.418 393.8 108C393.8 103.582 390.218 100 385.8 100L385.8 100ZM369.399 114C364.981 114 361.399 117.582 361.399 122C361.399 126.418 364.981 130 369.399 130C373.818 130 377.399 126.418 377.399 122C377.399 117.582 373.818 114 369.399 114L369.399 114ZM376.2 136C371.782 136 368.2 139.582 368.2 144C368.2 148.419 371.782 152 376.2 152C380.618 152 384.2 148.419 384.2 144C384.2 139.582 380.618 136 376.2 136L376.2 136ZM235.9 88.0007C228.997 88.0007 223.4 93.5972 223.4 100.501C223.4 107.404 228.997 113.001 235.9 113.001C242.803 113.001 248.4 107.404 248.4 100.501C248.4 93.5972 242.803 88.0007 235.9 88.0007L235.9 88.0007ZM210.1 95.0007C203.196 95.0007 197.6 100.597 197.6 107.501C197.6 114.404 203.196 120.001 210.1 120.001C217.003 120.001 222.6 114.404 222.6 107.501C222.6 100.597 217.003 95.0007 210.1 95.0007L210.1 95.0007ZM465.5 38.0002C458.597 38.0002 453 43.5966 453 50.5002C453 57.4038 458.597 63.0002 465.5 63.0002C472.403 63.0002 478 57.4038 478 50.5002C478 43.5966 472.403 38.0002 465.5 38.0002L465.5 38.0002ZM307.501 100C300.598 100 295.001 105.596 295.001 112.5C295.001 119.404 300.598 125 307.501 125C314.404 125 320.001 119.404 320.001 112.5C320.001 105.596 314.404 100 307.501 100L307.501 100ZM119.5 104C112.597 104 107 109.596 107 116.5C107 123.404 112.597 129 119.5 129C126.403 129 132 123.404 132 116.5C132 109.596 126.403 104 119.5 104L119.5 104ZM149.5 105C142.597 105 137 110.596 137 117.5C137 124.404 142.597 130 149.5 130C156.403 130 162 124.404 162 117.5C162 110.596 156.403 105 149.5 105L149.5 105ZM184.5 106C177.597 106 172 111.596 172 118.5C172 125.404 177.597 131 184.5 131C191.403 131 197 125.404 197 118.5C197 111.596 191.403 106 184.5 106L184.5 106ZM293.7 86.0002C290.663 86.0002 288.2 88.4627 288.2 91.5002C288.2 94.5378 290.663 97.0002 293.7 97.0002C296.738 97.0002 299.2 94.5378 299.2 91.5002C299.2 88.4627 296.738 86.0002 293.7 86.0002L293.7 86.0002ZM89 112C84.0293 112 80 116.029 80 121C80 125.971 84.0293 130 89 130C93.9707 130 98 125.971 98 121C98 116.029 93.9707 112 89 112L89 112ZM275.502 113C268.599 113 263.002 118.596 263.002 125.5C263.002 132.404 268.599 138 275.502 138C282.405 138 288.002 132.404 288.002 125.5C288.002 118.596 282.405 113 275.502 113L275.502 113ZM335.1 116C327.644 116 321.6 122.044 321.6 129.5C321.6 136.956 327.644 143 335.1 143C342.555 143 348.6 136.956 348.6 129.5C348.6 122.044 342.555 116 335.1 116L335.1 116ZM350.4 143C342.944 143 336.9 149.044 336.9 156.5C336.9 163.956 342.944 170 350.4 170C357.856 170 363.9 163.956 363.9 156.5C363.9 149.044 357.856 143 350.4 143L350.4 143ZM397.6 15.0002C390.42 15.0002 384.6 20.8205 384.6 28.0002C384.6 35.1799 390.42 41.0002 397.6 41.0002C404.779 41.0002 410.6 35.1799 410.6 28.0002C410.6 20.8205 404.779 15.0002 397.6 15.0002L397.6 15.0002ZM443.1 30.0002C438.958 30.0002 435.6 33.3581 435.6 37.5002C435.6 41.6423 438.958 45.0002 443.1 45.0002C447.242 45.0002 450.6 41.6423 450.6 37.5002C450.6 33.3581 447.242 30.0002 443.1 30.0002L443.1 30.0002ZM68 119C62.4771 119 58 123.477 58 129C58 134.523 62.4771 139 68 139C73.523 139 78 134.523 78 129C78 123.477 73.523 119 68 119L68 119ZM204.5 122C200.358 122 197 125.358 197 129.5C197 133.642 200.358 137 204.5 137C208.642 137 212 133.642 212 129.5C212 125.358 208.642 122 204.5 122L204.5 122ZM228.3 124C224.158 124 220.8 127.358 220.8 131.5C220.8 135.642 224.158 139 228.3 139C232.442 139 235.8 135.642 235.8 131.5C235.8 127.358 232.442 124 228.3 124L228.3 124ZM397.7 122C393.558 122 390.2 125.358 390.2 129.5C390.2 133.642 393.558 137 397.7 137C401.842 137 405.2 133.642 405.2 129.5C405.2 125.358 401.842 122 397.7 122L397.7 122ZM102.5 127C98.9102 127 96 129.91 96 133.5C96 137.09 98.9102 140 102.5 140C106.09 140 109 137.09 109 133.5C109 129.91 106.09 127 102.5 127L102.5 127ZM46.5 130C42.9102 130 40 132.91 40 136.5C40 140.09 42.9102 143 46.5 143C50.0899 143 53 140.09 53 136.5C53 132.91 50.0899 130 46.5 130L46.5 130ZM162.5 133C155.597 133 150 138.596 150 145.5C150 152.403 155.597 158 162.5 158C169.403 158 175 152.403 175 145.5C175 138.596 169.403 133 162.5 133L162.5 133ZM249.5 133C242.597 133 237 138.596 237 145.5C237 152.404 242.597 158 249.5 158C256.403 158 262 152.404 262 145.5C262 138.596 256.403 133 249.5 133L249.5 133ZM130.5 134C123.597 134 118 139.596 118 146.5C118 153.403 123.597 159 130.5 159C137.403 159 143 153.403 143 146.5C143 139.596 137.403 134 130.5 134L130.5 134ZM189.5 134C185.358 134 182 137.358 182 141.5C182 145.642 185.358 149 189.5 149C193.642 149 197 145.642 197 141.5C197 137.358 193.642 134 189.5 134L189.5 134ZM211.504 139C204.601 139 199.004 144.596 199.004 151.5C199.004 158.404 204.601 164 211.504 164C218.407 164 224.004 158.404 224.004 151.5C224.004 144.596 218.407 139 211.504 139L211.504 139ZM406.9 140C399.997 140 394.4 145.596 394.4 152.5C394.4 159.404 399.997 165 406.9 165C413.804 165 419.4 159.404 419.4 152.5C419.4 145.596 413.804 140 406.9 140L406.9 140ZM26.5 141C21.8057 141 18 144.806 18 149.5C18 154.194 21.8057 158 26.5 158C31.1943 158 35 154.194 35 149.5C35 144.806 31.1943 141 26.5 141L26.5 141ZM80.5 141C75.2534 141 71 145.253 71 150.5C71 155.747 75.2534 160 80.5 160C85.7466 160 90 155.747 90 150.5C90 145.253 85.7466 141 80.5 141L80.5 141ZM59 142C54.5815 142 51 145.582 51 150C51 154.418 54.5815 158 59 158C63.4185 158 67 154.418 67 150C67 145.582 63.4185 142 59 142L59 142ZM106.5 143C99.5967 143 94 148.596 94 155.5C94 162.404 99.5967 168 106.5 168C113.403 168 119 162.404 119 155.5C119 148.596 113.403 143 106.5 143L106.5 143ZM302 133C297.858 133 294.5 136.358 294.5 140.5C294.5 144.642 297.858 148 302 148C306.142 148 309.5 144.642 309.5 140.5C309.5 136.358 306.142 133 302 133L302 133ZM282.5 145C278.358 145 275 148.358 275 152.5C275 156.642 278.358 160 282.5 160C286.642 160 290 156.642 290 152.5C290 148.358 286.642 145 282.5 145L282.5 145ZM6.5 151C2.91016 151 0 153.91 0 157.5C0 161.09 2.91016 164 6.5 164C10.0899 164 13 161.09 13 157.5C13 153.91 10.0899 151 6.5 151L6.5 151ZM179.505 152C172.602 152 167.005 157.596 167.005 164.5C167.005 171.404 172.602 177 179.505 177C186.408 177 192.005 171.404 192.005 164.5C192.005 157.596 186.408 152 179.505 152L179.505 152ZM445.4 147C441.258 147 437.9 150.358 437.9 154.5C437.9 158.642 441.258 162 445.4 162C449.542 162 452.9 158.642 452.9 154.5C452.9 150.358 449.542 147 445.4 147L445.4 147ZM451.2 66C447.058 66 443.7 69.3579 443.7 73.5C443.7 77.6421 447.058 81 451.2 81C455.342 81 458.7 77.6421 458.7 73.5C458.7 69.3579 455.342 66 451.2 66L451.2 66ZM404.3 91.0002C400.158 91.0002 396.8 94.3581 396.8 98.5002C396.8 102.642 400.158 106 404.3 106C408.442 106 411.8 102.642 411.8 98.5002C411.8 94.3581 408.442 91.0002 404.3 91.0002L404.3 91.0002ZM378.699 159C371.796 159 366.199 164.596 366.199 171.5C366.199 178.404 371.796 184 378.699 184C385.603 184 391.199 178.404 391.199 171.5C391.199 164.596 385.603 159 378.699 159L378.699 159ZM491.6 134C484.696 134 479.1 139.596 479.1 146.5C479.1 153.404 484.696 159 491.6 159C498.503 159 504.1 153.404 504.1 146.5C504.1 139.596 498.503 134 491.6 134L491.6 134ZM233.702 160C225.97 160 219.702 166.268 219.702 174C219.702 181.732 225.97 188 233.702 188C241.434 188 247.702 181.732 247.702 174C247.702 166.268 241.434 160 233.702 160L233.702 160ZM124.5 164C120.358 164 117 167.358 117 171.5C117 175.642 120.358 179 124.5 179C128.642 179 132 175.642 132 171.5C132 167.358 128.642 164 124.5 164L124.5 164ZM427.101 160C422.958 160 419.601 163.358 419.601 167.5C419.601 171.642 422.958 175 427.101 175C431.243 175 434.601 171.642 434.601 167.5C434.601 163.358 431.243 160 427.101 160L427.101 160ZM147.506 165C140.603 165 135.006 170.596 135.006 177.5C135.006 184.404 140.603 190 147.506 190C154.409 190 160.006 184.404 160.006 177.5C160.006 170.596 154.409 165 147.506 165L147.506 165ZM299.4 160C292.497 160 286.9 165.597 286.9 172.5C286.9 179.404 292.497 185 299.4 185C306.304 185 311.9 179.404 311.9 172.5C311.9 165.597 306.304 160 299.4 160L299.4 160ZM321.1 146C315.025 146 310.1 150.925 310.1 157C310.1 163.075 315.025 168 321.1 168C327.175 168 332.1 163.075 332.1 157C332.1 150.925 327.175 146 321.1 146L321.1 146ZM466.8 153C459.897 153 454.3 158.596 454.3 165.5C454.3 172.404 459.897 178 466.8 178C473.704 178 479.3 172.404 479.3 165.5C479.3 158.596 473.704 153 466.8 153L466.8 153ZM409.5 174C405.358 174 402 177.358 402 181.5C402 185.642 405.358 189 409.5 189C413.642 189 417 185.642 417 181.5C417 177.358 413.642 174 409.5 174L409.5 174ZM110.5 175C103.597 175 98 180.596 98 187.5C98 194.404 103.597 200 110.5 200C117.403 200 123 194.404 123 187.5C123 180.596 117.403 175 110.5 175L110.5 175ZM179.702 180C172.246 180 166.202 186.044 166.202 193.5C166.202 200.956 172.246 207 179.702 207C187.158 207 193.202 200.956 193.202 193.5C193.202 186.044 187.158 180 179.702 180L179.702 180ZM195.5 208C188.044 208 182 214.044 182 221.5C182 228.956 188.044 235 195.5 235C202.956 235 209 228.956 209 221.5C209 214.044 202.956 208 195.5 208L195.5 208ZM265.5 157C261.358 157 258 160.358 258 164.5C258 168.642 261.358 172 265.5 172C269.642 172 273 168.642 273 164.5C273 160.358 269.642 157 265.5 157L265.5 157ZM272.6 176C266.525 176 261.6 180.925 261.6 187C261.6 193.075 266.525 198 272.6 198C278.675 198 283.6 193.075 283.6 187C283.6 180.925 278.675 176 272.6 176L272.6 176ZM393.1 184C388.958 184 385.6 187.358 385.6 191.5C385.6 195.642 388.958 199 393.1 199C397.242 199 400.6 195.642 400.6 191.5C400.6 187.358 397.242 184 393.1 184L393.1 184ZM370.3 192C366.158 192 362.8 195.358 362.8 199.5C362.8 203.642 366.158 207 370.3 207C374.442 207 377.8 203.642 377.8 199.5C377.8 195.358 374.442 192 370.3 192L370.3 192ZM351.7 193C347.558 193 344.2 196.358 344.2 200.5C344.2 204.642 347.558 208 351.7 208C355.842 208 359.2 204.642 359.2 200.5C359.2 196.358 355.842 193 351.7 193L351.7 193ZM354.8 174C350.658 174 347.3 177.358 347.3 181.5C347.3 185.642 350.658 189 354.8 189C358.942 189 362.3 185.642 362.3 181.5C362.3 177.358 358.942 174 354.8 174L354.8 174ZM421.5 187C414.596 187 409 192.596 409 199.5C409 206.403 414.596 212 421.5 212C428.404 212 434 206.403 434 199.5C434 192.596 428.404 187 421.5 187L421.5 187ZM311.497 187C304.594 187 298.997 192.596 298.997 199.5C298.997 206.404 304.594 212 311.497 212C318.4 212 323.997 206.404 323.997 199.5C323.997 192.596 318.4 187 311.497 187L311.497 187ZM135.5 191C128.596 191 123 196.597 123 203.5C123 210.404 128.596 216 135.5 216C142.403 216 148 210.404 148 203.5C148 196.597 142.403 191 135.5 191L135.5 191ZM125.3 219C118.396 219 112.8 224.597 112.8 231.5C112.8 238.404 118.396 244 125.3 244C132.204 244 137.8 238.404 137.8 231.5C137.8 224.597 132.204 219 125.3 219L125.3 219ZM155.299 207C148.396 207 142.799 212.597 142.799 219.5C142.799 226.404 148.396 232 155.299 232C162.203 232 167.799 226.404 167.799 219.5C167.799 212.597 162.203 207 155.299 207L155.299 207ZM250.5 195C246.358 195 243 198.358 243 202.5C243 206.642 246.358 210 250.5 210C254.642 210 258 206.642 258 202.5C258 198.358 254.642 195 250.5 195L250.5 195ZM97.5 202C90.5967 202 85 207.596 85 214.5C85 221.404 90.5967 227 97.5 227C104.403 227 110 221.404 110 214.5C110 207.596 104.403 202 97.5 202L97.5 202ZM280.496 203C273.593 203 267.996 208.596 267.996 215.5C267.996 222.404 273.593 228 280.496 228C287.399 228 292.996 222.404 292.996 215.5C292.996 208.596 287.399 203 280.496 203L280.496 203ZM225.697 203.999C218.794 203.999 213.197 209.596 213.197 216.499C213.197 223.403 218.794 228.999 225.697 228.999C232.601 228.999 238.197 223.403 238.197 216.499C238.197 209.596 232.601 203.999 225.697 203.999L225.697 203.999ZM207.897 177C200.994 177 195.397 182.597 195.397 189.5C195.397 196.404 200.994 202 207.897 202C214.801 202 220.397 196.404 220.397 189.5C220.397 182.597 214.801 177 207.897 177L207.897 177ZM334 203C329.858 203 326.5 206.358 326.5 210.5C326.5 214.642 329.858 218 334 218C338.142 218 341.5 214.642 341.5 210.5C341.5 206.358 338.142 203 334 203L334 203ZM359.499 213C352.595 213 346.999 218.596 346.999 225.5C346.999 232.403 352.595 238 359.499 238C366.403 238 371.999 232.403 371.999 225.5C371.999 218.596 366.403 213 359.499 213L359.499 213ZM390.499 205C383.595 205 377.999 210.596 377.999 217.5C377.999 224.403 383.595 230 390.499 230C397.403 230 402.999 224.403 402.999 217.5C402.999 210.596 397.403 205 390.499 205L390.499 205ZM303.5 216C299.358 216 296 219.358 296 223.5C296 227.642 299.358 231 303.5 231C307.642 231 311 227.642 311 223.5C311 219.358 307.642 216 303.5 216L303.5 216ZM249.495 219C242.592 219 236.995 224.596 236.995 231.5C236.995 238.404 242.592 244 249.495 244C256.398 244 261.995 238.404 261.995 231.5C261.995 224.596 256.398 219 249.495 219L249.495 219ZM327.498 224C320.595 224 314.998 229.596 314.998 236.5C314.998 243.403 320.595 249 327.498 249C334.401 249 339.998 243.403 339.998 236.5C339.998 229.596 334.401 224 327.498 224L327.498 224ZM95.5 236C88.0442 236 82 242.044 82 249.5C82 256.956 88.0442 263 95.5 263C102.956 263 109 256.956 109 249.5C109 242.044 102.956 236 95.5 236L95.5 236ZM157.496 236C150.593 236 144.996 241.596 144.996 248.5C144.996 255.404 150.593 261 157.496 261C164.399 261 169.996 255.404 169.996 248.5C169.996 241.596 164.399 236 157.496 236L157.496 236ZM272.5 234C268.358 234 265 237.358 265 241.5C265 245.642 268.358 249 272.5 249C276.642 249 280 245.642 280 241.5C280 237.358 276.642 234 272.5 234L272.5 234ZM295.498 234.999C288.594 234.999 282.998 240.596 282.998 247.499C282.998 254.403 288.594 259.999 295.498 259.999C302.402 259.999 307.998 254.403 307.998 247.499C307.998 240.596 302.402 234.999 295.498 234.999L295.498 234.999ZM218.494 235C211.591 235 205.994 240.596 205.994 247.5C205.994 254.404 211.591 260 218.494 260C225.397 260 230.994 254.404 230.994 247.5C230.994 240.596 225.397 235 218.494 235L218.494 235ZM239.5 245C235.358 245 232 248.358 232 252.5C232 256.642 235.358 260 239.5 260C243.642 260 247 256.642 247 252.5C247 248.358 243.642 245 239.5 245L239.5 245ZM128.491 250C121.588 250 115.991 255.596 115.991 262.5C115.991 269.404 121.588 275 128.491 275C135.395 275 140.991 269.404 140.991 262.5C140.991 255.596 135.395 250 128.491 250L128.491 250ZM69.7002 252C65.2821 252 61.7002 255.582 61.7002 260C61.7002 264.418 65.2821 268 69.7002 268C74.1183 268 77.7002 264.418 77.7002 260C77.7002 255.582 74.1183 252 69.7002 252L69.7002 252ZM187.493 251C180.59 251 174.993 256.596 174.993 263.5C174.993 270.404 180.59 276 187.493 276C194.396 276 199.993 270.404 199.993 263.5C199.993 256.596 194.396 251 187.493 251L187.493 251ZM266.5 251C262.358 251 259 254.358 259 258.5C259 262.642 262.358 266 266.5 266C270.642 266 274 262.642 274 258.5C274 254.358 270.642 251 266.5 251L266.5 251ZM249.5 260C242.597 260 237 265.596 237 272.5C237 279.404 242.597 285 249.5 285C256.403 285 262 279.404 262 272.5C262 265.596 256.403 260 249.5 260L249.5 260ZM220.3 264C216.158 264 212.8 267.358 212.8 271.5C212.8 275.642 216.158 279 220.3 279C224.442 279 227.8 275.642 227.8 271.5C227.8 267.358 224.442 264 220.3 264L220.3 264ZM179.3 230C175.158 230 171.8 233.358 171.8 237.5C171.8 241.642 175.158 245 179.3 245C183.442 245 186.8 241.642 186.8 237.5C186.8 233.358 183.442 230 179.3 230L179.3 230ZM156.492 267C149.589 267 143.992 272.596 143.992 279.5C143.992 286.404 149.589 292 156.492 292C163.396 292 168.992 286.404 168.992 279.5C168.992 272.596 163.396 267 156.492 267L156.492 267ZM232.501 279.998C225.597 279.998 220.001 285.595 220.001 292.498C220.001 299.402 225.597 304.998 232.501 304.998C239.405 304.998 245.001 299.402 245.001 292.498C245.001 285.595 239.405 279.998 232.501 279.998L232.501 279.998ZM190.504 280.001C183.6 280.001 178.004 285.597 178.004 292.501C178.004 299.404 183.6 305.001 190.504 305.001C197.408 305.001 203.004 299.404 203.004 292.501C203.004 285.597 197.408 280.001 190.504 280.001L190.504 280.001ZM215.501 299.997C208.598 299.997 203.001 305.593 203.001 312.497C203.001 319.4 208.598 324.997 215.501 324.997C222.404 324.997 228.001 319.4 228.001 312.497C228.001 305.593 222.404 299.997 215.501 299.997L215.501 299.997ZM167.507 303.002C160.604 303.002 155.007 308.598 155.007 315.502C155.007 322.405 160.604 328.002 167.507 328.002C174.41 328.002 180.007 322.405 180.007 315.502C180.007 308.598 174.41 303.002 167.507 303.002L167.507 303.002ZM193.5 315.995C186.597 315.995 181 321.592 181 328.495C181 335.399 186.597 340.995 193.5 340.995C200.403 340.995 206 335.399 206 328.495C206 321.592 200.403 315.995 193.5 315.995L193.5 315.995ZM149 320C145.687 320 143 322.686 143 326C143 329.314 145.687 332 149 332C152.313 332 155 329.314 155 326C155 322.686 152.313 320 149 320L149 320ZM149.5 334C142.597 334 137 339.596 137 346.5C137 353.404 142.597 359 149.5 359C156.403 359 162 353.404 162 346.5C162 339.596 156.403 334 149.5 334L149.5 334ZM175.502 336C171.36 336 168.002 339.358 168.002 343.5C168.002 347.642 171.36 351 175.502 351C179.644 351 183.002 347.642 183.002 343.5C183.002 339.358 179.644 336 175.502 336L175.502 336ZM130 343C126.687 343 124 345.686 124 349C124 352.314 126.687 355 130 355C133.313 355 136 352.314 136 349C136 345.686 133.313 343 130 343L130 343ZM119 353C115.687 353 113 355.686 113 359C113 362.314 115.687 365 119 365C122.313 365 125 362.314 125 359C125 355.686 122.313 353 119 353L119 353ZM134 357C130.687 357 128 359.686 128 363C128 366.314 130.687 369 134 369C137.313 369 140 366.314 140 363C140 359.686 137.313 357 134 357L134 357ZM108 363C104.687 363 102 365.686 102 369C102 372.314 104.687 375 108 375C111.313 375 114 372.314 114 369C114 365.686 111.313 363 108 363L108 363ZM121 366C119.343 366 118 367.343 118 369C118 370.657 119.343 372 121 372C122.657 372 124 370.657 124 369C124 367.343 122.657 366 121 366L121 366ZM96 369C92.6865 369 90 371.686 90 375C90 378.314 92.6865 381 96 381C99.3135 381 102 378.314 102 375C102 371.686 99.3135 369 96 369L96 369ZM81 378C79.3433 378 78 379.343 78 381C78 382.657 79.3433 384 81 384C82.6567 384 84 382.657 84 381C84 379.343 82.6567 378 81 378L81 378Z" id="Vector" fill="url(#gradient_1)" fill-rule="evenodd" stroke="none" />
</svg>